<?xml version="1.0" encoding="UTF-8"?>
<!DOCTYPE svg PUBLIC "-//W3C//DTD SVG 1.1//EN" "http://www.w3.org/Graphics/SVG/1.1/DTD/svg11.dtd">
<!-- Creator: CorelDRAW 2018 (64-Bit) -->
<svg xmlns="http://www.w3.org/2000/svg" xml:space="preserve" width="1594px" height="374px" version="1.1" style="shape-rendering:geometricPrecision; text-rendering:geometricPrecision; image-rendering:optimizeQuality; fill-rule:evenodd; clip-rule:evenodd"
viewBox="0 0 1659.18 388.91"
 xmlns:xlink="http://www.w3.org/1999/xlink">
 <defs>
  <style type="text/css">
   <![CDATA[
    .fil0 {fill:#1E1B1E;fill-rule:nonzero}
    .fil1 {fill:#46BBB8;fill-rule:nonzero}
    .fil4 {fill:#666666;fill-rule:nonzero}
    .fil2 {fill:#8E509A;fill-rule:nonzero}
    .fil3 {fill:#BFC826;fill-rule:nonzero}
   ]]>
  </style>
 </defs>
 <g id="Layer_x0020_1">
  <metadata id="CorelCorpID_0Corel-Layer"/>
  <g id="_1319254107344">
   <g>
    <polygon class="fil0" points="0,64.82 64.81,64.82 64.81,0 0,0 "/>
    <polygon class="fil1" points="64.81,64.82 129.62,64.82 129.62,0 64.81,0 "/>
    <polygon class="fil0" points="129.63,64.82 194.47,64.82 194.47,0 129.63,0 "/>
    <polygon class="fil0" points="0,259.28 64.81,259.28 64.81,194.46 0,194.46 "/>
    <polygon class="fil2" points="0,194.46 64.81,194.46 64.81,129.64 0,129.64 "/>
    <polygon class="fil3" points="64.81,324.09 129.62,324.09 129.62,259.27 64.81,259.27 "/>
    <polygon class="fil0" points="129.63,324.09 194.47,324.09 194.47,259.27 129.63,259.27 "/>
    <polygon class="fil0" points="194.46,129.64 259.27,129.64 259.27,64.82 194.46,64.82 "/>
    <polygon class="fil1" points="194.46,194.46 259.27,194.46 259.27,129.64 194.46,129.64 "/>
    <polygon class="fil0" points="194.46,259.28 259.27,259.28 259.27,194.46 194.46,194.46 "/>
    <polygon class="fil2" points="324.08,64.82 388.89,64.82 388.89,0 324.08,0 "/>
    <polygon class="fil0" points="259.27,388.91 324.08,388.91 324.08,324.09 259.27,324.09 "/>
    <polygon class="fil1" points="194.46,388.91 259.27,388.91 259.27,324.09 194.46,324.09 "/>
    <polygon class="fil0" points="324.08,324.09 388.89,324.09 388.89,259.27 324.08,259.27 "/>
    <polygon class="fil0" points="388.89,129.64 453.73,129.64 453.73,64.82 388.89,64.82 "/>
    <polygon class="fil3" points="388.89,194.46 453.73,194.46 453.73,129.64 388.89,129.64 "/>
    <polygon class="fil0" points="388.89,259.28 453.73,259.28 453.73,194.46 388.89,194.46 "/>
   </g>
   <g>
    <path class="fil0" d="M562.62 198.73l53.89 0c37.9,0 62.9,-23.97 62.9,-71.51 0,-47.54 -25,-71.51 -62.9,-71.51l-53.89 0 0 143.02zm31.14 -27.67l0 -87.69 22.74 0c18.44,0 29.92,10.04 29.92,32.79l0 22.12c0,22.74 -11.48,32.78 -29.92,32.78l-22.74 0 0 0zm206.32 27.67l0 -23.57 -10.03 0 0 -47.12c0,-25.41 -15.58,-39.34 -45.9,-39.34 -22.54,0 -34.83,7.78 -43.44,20.49l18.04 15.98c4.71,-6.56 11.06,-12.71 23.15,-12.71 12.7,0 17.82,6.56 17.82,17.01l0 6.76 -17 0c-28.48,0 -46.1,10.86 -46.1,33.61 0,18.64 11.88,31.34 33.4,31.34 16.38,0 28.27,-7.37 31.55,-21.3l1.23 0c1.84,11.47 9.63,18.85 20.49,18.85l16.79 0 0 0zm-58.8 -18.65c-9.02,0 -14.14,-3.68 -14.14,-11.47l0 -3.08c0,-7.78 6.15,-12.09 17.83,-12.09l14.75 0 0 12.71c0,9.83 -8.4,13.93 -18.44,13.93l0 0zm109.41 18.65l0 -69.67c0,-10.65 9.02,-15.77 17.83,-15.77 9.83,0 14.75,6.55 14.75,20.49l0 64.95 30.32 0 0 -69.67c0,-10.65 8.81,-15.77 17.83,-15.77 10.04,0 14.75,6.55 14.75,20.49l0 64.95 30.32 0 0 -67.42c0,-27.04 -11.47,-42.61 -32.16,-42.61 -16.39,0 -28.89,9.63 -32.78,21.72l-0.62 0c-4.71,-14.14 -15.36,-21.72 -30.12,-21.72 -15.98,0 -24.99,9.22 -28.89,20.69l-1.23 0 0 -18.23 -30.32 0 0 107.57 30.32 0 0 0zm249.15 0l0 -23.57 -10.04 0 0 -47.12c0,-25.41 -15.57,-39.34 -45.9,-39.34 -22.53,0 -34.83,7.78 -43.43,20.49l18.03 15.98c4.71,-6.56 11.06,-12.71 23.15,-12.71 12.7,0 17.83,6.56 17.83,17.01l0 6.76 -17.01 0c-28.48,0 -46.1,10.86 -46.1,33.61 0,18.64 11.88,31.34 33.4,31.34 16.39,0 28.27,-7.37 31.55,-21.3l1.23 0c1.84,11.47 9.63,18.85 20.49,18.85l16.8 0 0 0zm-58.81 -18.65c-9.01,0 -14.13,-3.68 -14.13,-11.47l0 -3.08c0,-7.78 6.14,-12.09 17.82,-12.09l14.76 0 0 12.71c0,9.83 -8.41,13.93 -18.45,13.93zm94.26 -100.4c12.29,0 17.61,-6.35 17.61,-14.95l0 -4.51c0,-8.61 -5.32,-14.96 -17.61,-14.96 -12.3,0 -17.63,6.35 -17.63,14.96l0 4.51c0,8.6 5.33,14.95 17.63,14.95zm-15.17 119.05l30.32 0 0 -107.57 -30.32 0 0 107.57zm117.82 -143.02l0 25 43.43 0 0 75.2c0,12.29 -7.37,17.82 -16.39,17.82 -9.63,0 -15.58,-6.55 -17.83,-18.65l-29.09 5.74c4.1,23.98 19.05,40.16 47.33,40.16 29.5,0 47.12,-17.42 47.12,-43.64l0 -101.63 -74.58 0 0.01 0zm199.97 143.02l0 -23.57 -10.05 0 0 -47.12c0,-25.41 -15.57,-39.34 -45.89,-39.34 -22.54,0 -34.83,7.78 -43.43,20.49l18.02 15.98c4.71,-6.56 11.07,-12.71 23.16,-12.71 12.7,0 17.82,6.56 17.82,17.01l0 6.76 -17 0c-28.49,0 -46.11,10.86 -46.11,33.61 0,18.64 11.89,31.34 33.4,31.34 16.4,0 28.27,-7.37 31.55,-21.3l1.23 0c1.85,11.47 9.63,18.85 20.49,18.85l16.81 0 0 0zm-58.81 -18.65c-9.01,0 -14.14,-3.68 -14.14,-11.47l0 -3.08c0,-7.78 6.15,-12.09 17.83,-12.09l14.75 0 0 12.71c0,9.83 -8.4,13.93 -18.44,13.93zm127.23 -38.72l-7.98 31.14 -1.23 0 -7.79 -31.14 -15.78 -50.2 -30.11 0 37.7 113.1 -3.69 11.88 -20.28 0 0 23.57 18.85 0c18.44,0 27.45,-7.79 32.99,-24.39l41.38 -124.16 -28.28 0 -15.77 50.2 -0.01 0zm152.85 57.37l0 -23.57 -10.03 0 0 -47.12c0,-25.41 -15.57,-39.34 -45.9,-39.34 -22.54,0 -34.83,7.78 -43.44,20.49l18.03 15.98c4.72,-6.56 11.07,-12.71 23.15,-12.71 12.71,0 17.83,6.56 17.83,17.01l0 6.76 -17 0c-28.48,0 -46.1,10.86 -46.1,33.61 0,18.64 11.88,31.34 33.39,31.34 16.39,0 28.28,-7.37 31.56,-21.3l1.22 0c1.85,11.47 9.64,18.85 20.49,18.85l16.8 0 0 0zm-58.79 -18.65c-9.03,0 -14.14,-3.68 -14.14,-11.47l0 -3.08c0,-7.78 6.14,-12.09 17.82,-12.09l14.75 0 0 12.71c0,9.83 -8.4,13.93 -18.43,13.93l0 0z"/>
    <path class="fil4" d="M591.18 322.65c18.65,0 29.26,-10.05 29.26,-24.8 0,-12.84 -7.37,-19.88 -23.12,-22.67l-7.26 -1.35c-7.48,-1.34 -10.83,-3.79 -10.83,-9.71 0,-5.81 4.35,-9.16 12.73,-9.16 8.27,0 13.63,3.24 17.43,8.04l10.05 -9.49c-6.26,-7.49 -14.97,-11.51 -26.7,-11.51 -17.42,0 -28.26,9.05 -28.26,23.01 0,12.74 7.6,20.22 23.35,22.68l7.37 1.11c8.15,1.46 10.61,4.69 10.61,9.95 0,6.59 -4.69,10.94 -13.74,10.94 -8.04,0 -14.63,-3.35 -19.99,-9.6l-9.94 9.6c6.59,7.71 15.75,12.96 29.04,12.96z"/>
    <path id="1" class="fil4" d="M669.15 321.31l14.29 0 0 -58.31 -14.29 0 0 38.54c0,6.25 -5.7,9.27 -11.4,9.27 -6.81,0 -9.83,-4.36 -9.83,-12.4l0 -35.41 -14.3 0 0 36.86c0,14.52 6.71,22.79 18.66,22.79 9.6,0 14.3,-5.25 16.31,-11.06l0.56 0 0 9.72z"/>
    <path id="2" class="fil4" d="M699.97 343.65l14.3 0 0 -32.06 0.45 0c2.23,6.59 8.38,11.06 16.08,11.06 14.75,0 22.9,-11.06 22.9,-30.61 0,-19.43 -8.15,-30.38 -22.9,-30.38 -7.7,0 -13.96,4.24 -16.08,10.95l-0.45 0 0 -9.61 -14.3 0 0 80.65zm26.25 -32.84c-6.81,0 -11.95,-3.46 -11.95,-9.5l0 -18.54c0,-5.69 5.14,-9.38 11.95,-9.38 7.38,0 12.51,5.47 12.51,13.74l0 10.05c0,8.27 -5.13,13.63 -12.51,13.63z"/>
    <path id="3" class="fil4" d="M790.56 322.65c10.84,0 19.33,-4.13 24.13,-10.72l-7.71 -8.61c-3.57,4.58 -7.81,7.93 -14.85,7.93 -9.39,0 -14.19,-5.69 -14.19,-14.07l0 -1.45 38.76 0 0 -4.69c0,-15.98 -8.37,-29.38 -26.58,-29.38 -17.09,0 -27.03,11.95 -27.03,30.38 0,18.66 10.27,30.61 27.47,30.61zm-0.22 -50.27c7.37,0 11.51,5.48 11.51,13.52l0 1 -23.91 0 0 -0.89c0,-8.04 4.92,-13.63 12.4,-13.63z"/>
    <path id="4" class="fil4" d="M843.62 321.31l0 -35.75c0,-6.36 5.03,-9.04 14.63,-9.04l4.47 0 0 -13.52 -3.13 0c-9.27,0 -13.96,5.92 -15.41,12.06l-0.56 0 0 -12.06 -14.3 0 0 58.31 14.3 0z"/>
    <path id="5" class="fil4" d="M964.04 321.31l-25.92 -77.97 -18.32 0 -26.13 77.97 14.96 0 6.15 -19.88 27.7 0 6.25 19.88 15.31 0zm-25.14 -32.51l-20.55 0 9.94 -32.05 0.56 0 10.05 32.05z"/>
    <path id="6" class="fil4" d="M974.65 343.65l14.3 0 0 -32.06 0.44 0c2.24,6.59 8.38,11.06 16.09,11.06 14.74,0 22.9,-11.06 22.9,-30.61 0,-19.43 -8.16,-30.38 -22.9,-30.38 -7.71,0 -13.96,4.24 -16.09,10.95l-0.44 0 0 -9.61 -14.3 0 0 80.65zm26.25 -32.84c-6.82,0 -11.95,-3.46 -11.95,-9.5l0 -18.54c0,-5.69 5.13,-9.38 11.95,-9.38 7.37,0 12.51,5.47 12.51,13.74l0 10.05c0,8.27 -5.14,13.63 -12.51,13.63z"/>
    <path id="7" class="fil4" d="M1041.67 343.65l14.3 0 0 -32.06 0.44 0c2.24,6.59 8.38,11.06 16.09,11.06 14.74,0 22.9,-11.06 22.9,-30.61 0,-19.43 -8.16,-30.38 -22.9,-30.38 -7.71,0 -13.96,4.24 -16.09,10.95l-0.44 0 0 -9.61 -14.3 0 0 80.65zm26.25 -32.84c-6.82,0 -11.95,-3.46 -11.95,-9.5l0 -18.54c0,-5.69 5.13,-9.38 11.95,-9.38 7.37,0 12.51,5.47 12.51,13.74l0 10.05c0,8.27 -5.14,13.63 -12.51,13.63z"/>
   </g>
  </g>
 </g>
</svg>
